<svg>

	<symbol version="1.1" id="marker" xmlns="http://www.w3.org/2000/svg" xmlns:xlink="http://www.w3.org/1999/xlink" x="0px" y="0px"
	 viewBox="0 0 10.5 15" style="enable-background:new 0 0 10.5 15;" xml:space="preserve">
		<style type="text/css">
			.st0{fill-rule:evenodd;clip-rule:evenodd;fill:#3502FF;}
		</style>
		<path class="st0" d="M5.2,0C2.3,0,0,2.3,0,5.2C0,9.2,5.2,15,5.2,15s5.2-5.8,5.2-9.8C10.5,2.3,8.2,0,5.2,0L5.2,0z M5.2,7.1
			c-1,0-1.9-0.8-1.9-1.9s0.8-1.9,1.9-1.9s1.9,0.8,1.9,1.9S6.3,7.1,5.2,7.1L5.2,7.1z"/>
	</symbol>

	<symbol version="1.1" id="instagram" xmlns="http://www.w3.org/2000/svg" xmlns:xlink="http://www.w3.org/1999/xlink" x="0px" y="0px"
	 viewBox="0 0 14 14" style="enable-background:new 0 0 14 14;" xml:space="preserve">
		<style type="text/css">
			.st0{fill-rule:evenodd;clip-rule:evenodd;}
		</style>
		<path class="st0" d="M14,11.3V5.6V2.7C14,1.2,12.8,0,11.3,0H2.7C1.2,0,0,1.2,0,2.7v2.9v5.7C0,12.8,1.2,14,2.7,14h8.6
			C12.8,14,14,12.8,14,11.3z M9.5,7c0,1.4-1.1,2.5-2.5,2.5C5.6,9.5,4.5,8.4,4.5,7c0-0.5,0.2-1,0.5-1.4c0.4-0.6,1.2-1,2-1
			c0.8,0,1.5,0.4,2,1C9.3,6,9.5,6.5,9.5,7z M12.4,4V1.9V1.6l-0.3,0l-2.1,0L10,4L12.4,4z M7,10.8c2.1,0,3.8-1.7,3.8-3.8
			c0-0.5-0.1-1-0.3-1.4h2.1v5.7c0,0.7-0.6,1.3-1.3,1.3H2.7c-0.7,0-1.3-0.6-1.3-1.3V5.6h2.1C3.3,6,3.2,6.5,3.2,7
			C3.2,9.1,4.9,10.8,7,10.8z"/>
	</symbol>

	<symbol version="1.1" id="tiktok" xmlns="http://www.w3.org/2000/svg" xmlns:xlink="http://www.w3.org/1999/xlink" x="0px" y="px"
			viewBox="0 0 14 15" style="enable-background:new 0 0 14 15;" xml:space="preserve">
    <style type="text/css">
        .st0{fill-rule:evenodd;clip-rule:evenodd;}
    </style>
		<path d="M9 0h1.98c.144.715.54 1.617 1.235 2.512C12.895 3.389 13.797 4 15 4v2c-1.753 0-3.07-.814-4-1.829V11a5 5 0 1 1-5-5v2a3 3 0 1 0 3 3V0Z"/>
</symbol>

	<symbol version="1.1" id="play" xmlns="http://www.w3.org/2000/svg" xmlns:xlink="http://www.w3.org/1999/xlink" x="0px" y="0px"
	 viewBox="0 0 20 20" style="enable-background:new 0 0 20 20;" xml:space="preserve">
		<style type="text/css">
			.st0{fill-rule:evenodd;clip-rule:evenodd;fill:#C2D1D9;}
		</style>
		<path class="st0" d="M12.9,10.8c0.5-0.4,0.5-1.2,0-1.6L9.6,6.7C8.9,6.2,8,6.7,8,7.5v5c0,0.8,0.9,1.3,1.6,0.8L12.9,10.8z M0,10
			c0,5.5,4.5,10,10,10s10-4.5,10-10S15.5,0,10,0S0,4.5,0,10z M2,10c0-4.4,3.6-8,8-8s8,3.6,8,8s-3.6,8-8,8S2,14.4,2,10z"/>
	</symbol>

	<symbol version="1.1" id="line1" xmlns="http://www.w3.org/2000/svg" xmlns:xlink="http://www.w3.org/1999/xlink" x="0px" y="0px"
	 viewBox="0 0 852 535" style="enable-background:new 0 0 852 535;" xml:space="preserve">
		<style type="text/css">
			.st0{fill:none;stroke:#3502FF;stroke-width:3;stroke-linecap:round;}
		</style>
		<path class="st0" d="M114.2,95.7C66.4,156.4,21.7,229.8,6.5,306.5c-3.9,19.6-5,39.4-5,59.3c0,13.1-0.4,26.9,5.9,38.9
			c15.3,29.3,51.2,45.8,82.5,49.1c60.1,6.4,115.9-42.3,159.7-77c59.7-47.3,120.5-104.5,156.2-173c19.9-38.3,25.5-84.2,24.6-127
			c-0.2-9.7,0.4-23.2-6.5-31.1c-9.8-11.2-31.4-10.8-44.7-11.2c-60.4-1.5-119.6,22.2-160.3,67.8c-39,43.6-36.8,108.9-33.1,163.8
			c1.8,27.3,5.5,78.6,38.1,88.1c52.6,15.3,112-15.6,151.8-47c36.8-29,62.5-65,85.2-105.8c17.2-31,32.9-62.4,37.5-97.8
			c1.3-10.3,5.2-29.2-5.2-36.5c-17.7-12.5-53.9-5.6-72.9-1.6c-71.7,15.1-137.8,64.3-173.8,127.9c-31.8,56.2-43,122.6-37.3,186.6
			c11.5,129.7,183.6,1.2,228.2-38.8c35.2-31.6,65.1-69.9,77.2-116.3c5.5-21,7.1-42.3,7.5-63.9c0.3-21.7,1.3-45-7.4-65.3
			c-14.7-34.5-47.5-43.8-82.3-43.2c-45,0.7-84.9,20.9-107.7,60.5c-33.7,58.5-33,126-32.2,191.5c0.3,30.2-1,83.1,26.8,104.1
			c18.2,13.7,51.5,7,70.4-0.4c49.2-19.4,84.5-62.8,113.7-104.9C554,229.9,604.1,151.7,597,58.6c-1.4-18.1-10.2-22.6-22.9-33.9
			c-12.5-11.1-23.8-22.9-41.5-22.9c-29.6,0-59.7-2.3-88.5,5.8C406.8,18,365.9,29.3,337.9,57.3c-21.3,21.3-38.9,46.7-56.7,70.9
			c-22.5,30.4-44.7,61-65.3,92.6c-31.6,48.6-58.3,104.5-61.3,163.3c-1.5,29.5-2.7,59-2.2,88.6c0.3,18.6,7.6,37.8,23.5,48.6
			c21,14.2,54,12.5,78,11.7c45.6-1.6,84.5-26.8,117.1-57.2c61.4-57.5,118.9-120.7,140.3-204.1c9.7-37.9,11.5-76.3,10.8-115.2
			c-0.5-24.1-1.3-61.2-28.4-71.2c-31.5-11.7-62.2,0.4-82.4,25.5c-30.8,38.3-50,94.2-57.5,142.3c-5.6,35.6-10.2,76.8-0.9,112.1
			c5.5,21,13.6,47.2,27.5,64.3c33.7,41.4,88.5,42.9,129.6,10c34.9-27.9,65.2-63.8,85-104.1c16.6-33.9,31.2-71.1,32.9-109.1
			c0.9-19.5,2.8-47.6-16.9-59c-24.4-14.2-53.7,5.5-69.9,22.5c-35.7,37.3-62,89.7-76,139.2c-11.1,39.4-17.3,82-11.9,123.1
			c9.2,69.6,99.5-1.8,122.7-22.2c65.1-57.3,142.9-144.3,129.9-238.7c-2.3-16.8-12.1-45-34.7-37.3c-13.2,4.5-22.3,20.6-28.6,31.9
			c-13.1,23.4-21.8,49.7-26.7,76c-5,27.2-6.2,50.9,10.6,73.9c13.8,18.8,35.2,30.1,57.7,34.6c13.4,2.7,26.9,4.2,40.3,0.6
			c29.4-7.9,48.9-35.8,66.8-58.3c22.2-27.9,44.6-57.2,59.4-89.9"/>
	</symbol>

	<symbol version="1.1" id="line2" xmlns="http://www.w3.org/2000/svg" xmlns:xlink="http://www.w3.org/1999/xlink" x="0px" y="0px"
	 viewBox="0 0 2299.9 913.2" style="enable-background:new 0 0 2299.9 913.2;" xml:space="preserve">
		<style type="text/css">
			.st0{fill:none;stroke:#3502FF;stroke-width:3;stroke-linecap:round;}
		</style>
		<path class="st0" d="M15.7,184.7c-119.4,103.8,553.5,21.5,515.4,152.7c-9.7,33.5-579.3-76.6-455.3,236c0,22.5,99.4,97.5,115,118
			c38.3,50.1,127.9,78.3,206.1,83.9c150.3,10.9,289.7-72.3,399.3-131.7c149.2-80.9,301.3-178.8,390.4-296
			c49.8-65.6,63.9-144.1,61.6-217.2c-0.5-16.6,1.1-39.7-16.2-53.2c-24.6-19.2-78.6-18.5-111.7-19.1c-150.9-2.6-299,38-400.8,116
			c-97.4,74.6-91.9,186.2-82.8,280.1c4.5,46.7,13.8,134.4,95.2,150.6c131.4,26.2,280-26.7,379.4-80.4c92-49.7,156.2-111.2,212.9-181
			c43-53,82.3-106.8,93.7-167.4c3.3-17.7,13-49.9-13-62.4c-44.2-21.3-134.7-9.6-182.2-2.7c-179.3,25.8-344.4,109.9-434.5,218.7
			c-79.6,96.1-107.4,209.8-93.2,319.2c28.8,222,458.9,2,570.3-66.4c88-54,162.6-119.5,192.9-198.9c13.7-35.9,17.8-72.4,18.7-109.4
			c0.9-37.1,3.2-76.9-18.5-111.8c-36.7-59-118.7-74.8-205.7-73.9c-112.4,1.3-212.1,35.7-269.2,103.6
			c-84.2,100.1-82.4,215.5-80.5,327.6c0.9,51.6-2.5,142.1,67.1,178.1c45.4,23.5,128.8,12,176-0.7c123-33.1,211.2-107.4,284.2-179.5
			c126.9-125.4,252.1-259.1,234.3-418.3c-3.4-31-25.5-38.7-57.3-58c-31.4-19-59.6-39.2-103.7-39.2c-74,0-149.3-3.9-221.4,9.9
			C1189.4,29.8,1087,49.2,1017,97.1c-53.3,36.5-97.2,80-141.8,121.3c-56.1,52-111.8,104.3-163.3,158.5
			c-79,83.2-145.8,178.7-153.3,279.3c-3.8,50.4-6.7,101-5.5,151.5c0.8,31.8,19.1,64.7,58.8,83.1c52.4,24.2,135.1,21.4,194.9,20
			c114-2.8,211.3-45.8,292.6-97.9c153.5-98.4,297.2-206.4,350.7-349.2c24.3-64.8,28.8-130.5,26.9-197.1
			c-1.2-41.3-3.3-104.6-71.1-121.8c-78.7-20-155.4,0.7-205.9,43.7c-76.9,65.6-125,161.2-143.8,243.5c-13.9,60.9-25.5,131.3-2.2,191.8
			c13.8,35.9,33.9,80.7,68.8,110c84.3,70.8,221.2,73.3,324.1,17.1c87.3-47.8,163.1-109.1,212.4-178.1c41.4-57.9,78-121.6,82.3-186.6
			c2.2-33.3,7-81.5-42.1-101c-60.9-24.2-134.1,9.5-174.7,38.6c-89.2,63.9-155,153.5-190,238.2c-27.8,67.5-43.2,140.4-29.7,210.5
			c23,119,248.6-3.1,306.6-38c162.8-98.1,357.1-246.9,324.8-408.3c-5.8-28.7-30.3-77-86.8-63.8c-33.1,7.7-55.8,35.3-71.5,54.6
			c-32.7,40-54.6,85-66.8,130c-12.6,46.5-15.5,87.1,26.4,126.4c34.4,32.2,87.9,51.5,144.3,59.2c33.5,4.6,67.1,7.2,100.7,1
			c73.4-13.5,122.2-61.3,167-99.8c55.6-47.7,111.5-97.9,148.6-153.7"/>
	</symbol>

	<symbol version="1.1" id="arrow" xmlns="http://www.w3.org/2000/svg" xmlns:xlink="http://www.w3.org/1999/xlink" x="0px" y="0px"
	 viewBox="0 0 7.2 4.6" style="enable-background:new 0 0 7.2 4.6;" xml:space="preserve">
		<style type="text/css">
			.st0{fill-rule:evenodd;clip-rule:evenodd;fill:#C2D1D9;}
		</style>
		<path class="st0" d="M1,0C0.1,0-0.3,1.1,0.3,1.7l2.6,2.6c0.4,0.4,1,0.4,1.4,0l2.6-2.6C7.5,1.1,7.1,0,6.2,0H1z"/>
	</symbol>

	<symbol xmlns="http://www.w3.org/2000/svg" xmlns:xlink="http://www.w3.org/1999/xlink" version="1.1" id="telegram" x="0px" y="0px" 
	 viewBox="0 0 21.5 16.9" style="enable-background:new 0 0 21.5 16.9;" xml:space="preserve">
		<style type="text/css">
			.st0{fill:#FFFFFF;}
		</style>
		<path class="st0" d="M20.2,0.1c0.8-0.3,1.5,0.3,1.4,1.1l-3.4,15c-0.2,0.7-1,1-1.7,0.6l-5.1-3.5l-2.6,2.5c-0.5,0.4-1.2,0.3-1.4-0.3    L5.5,9.9l-5-1.4c-0.7-0.2-0.7-1-0.1-1.3L20.2,0.1z M17.7,3.4c0.2-0.2,0-0.5-0.3-0.4L6.6,9.3C6.4,9.4,6.3,9.6,6.4,9.8l1.5,6    c0,0.1,0.2,0.1,0.2,0l0.3-4.6c0-0.1,0.1-0.2,0.2-0.3L17.7,3.4z"/>
	</symbol>

	<symbol xmlns="http://www.w3.org/2000/svg" xmlns:xlink="http://www.w3.org/1999/xlink" version="1.1" id="viber" x="0px" y="0px" 
	 viewBox="0 0 21 23" style="enable-background:new 0 0 21 23;" xml:space="preserve">
		<style type="text/css">
			.st0{fill:#FFFFFF;}
		</style>
		<path class="st0" d="M16.3,0.5c-3.8-0.7-7.8-0.7-11.6,0C3,0.9,0.9,2.9,0.5,4.5c-0.7,3.1-0.7,6.3,0,9.5c0.4,1.6,2.6,3.6,4.2,4    c0.1,0,0.1,0.1,0.1,0.1v4.6c0,0.2,0.3,0.4,0.4,0.1l2.2-2.3c0,0,1.8-1.8,2.1-2.1c0,0,0.1-0.1,0.1-0.1c2.2,0.1,4.5-0.1,6.7-0.5    c1.7-0.4,3.8-2.4,4.2-4c0.7-3.1,0.7-6.3,0-9.5C20.1,2.9,17.9,0.9,16.3,0.5z M16.3,14.2c-0.4,0.7-0.8,1.3-1.5,1.7    c-0.2,0.1-0.4,0.1-0.7,0.2c-0.3-0.1-0.5-0.1-0.7-0.2C11,15,8.9,13.6,7.1,11.8c-1-1.1-1.8-2.3-2.4-3.6C4.4,7.5,4.1,6.9,3.9,6.2    C3.6,5.6,4,5.1,4.4,4.6c0.4-0.4,0.8-0.7,1.3-0.9c0.4-0.2,0.7-0.1,1,0.2c0.6,0.7,1.2,1.5,1.6,2.3C8.6,6.7,8.6,7.2,8,7.6    C7.9,7.7,7.8,7.8,7.7,7.9C7.6,8,7.5,8,7.4,8.2C7.2,8.4,7.2,8.6,7.3,8.8c0.6,1.7,1.7,3,3.4,3.7c0.3,0.1,0.5,0.2,0.9,0.2    c0.5-0.1,0.7-0.7,1.1-0.9c0.4-0.3,0.8-0.3,1.2-0.1c0.4,0.2,0.7,0.5,1.2,0.8c0.4,0.3,0.7,0.5,1.1,0.8C16.4,13.5,16.5,13.9,16.3,14.2z    M13.2,8.8C13.1,8.8,13.2,8.8,13.2,8.8c-0.3,0-0.4-0.1-0.4-0.4c0-0.1,0-0.4-0.1-0.5c-0.1-0.3-0.2-0.6-0.5-0.8    C12.1,7,11.9,7,11.8,6.9c-0.2-0.1-0.4-0.1-0.6-0.1c-0.2-0.1-0.3-0.2-0.3-0.4c0-0.1,0.2-0.3,0.4-0.3c1.2,0.1,2.1,0.7,2.2,2.1    c0,0.1,0,0.2,0,0.3C13.5,8.6,13.4,8.8,13.2,8.8z M12.5,5.6c-0.4-0.1-0.7-0.3-1.2-0.4c-0.1,0-0.4-0.1-0.5-0.1c-0.2,0-0.4-0.1-0.3-0.4    c0-0.2,0.1-0.4,0.4-0.3C11.6,4.5,12.3,4.7,13,5c1.3,0.7,2.1,1.7,2.3,3.2c0,0.1,0,0.1,0,0.2c0,0.1,0,0.3,0,0.5c0,0.1,0,0.1,0,0.2    c-0.1,0.3-0.6,0.4-0.7,0c0-0.1-0.1-0.2-0.1-0.3c0-0.7-0.1-1.3-0.4-1.9C13.6,6.3,13.1,5.9,12.5,5.6z M16.5,9.9    c-0.2,0-0.4-0.2-0.4-0.4c0-0.4-0.1-0.9-0.1-1.3c-0.3-2.3-2.2-4.2-4.5-4.6c-0.4-0.1-0.7-0.1-1-0.1c-0.2,0-0.5,0-0.6-0.3    C9.8,2.9,10,2.7,10.2,2.7c0.1,0,0.1,0,0.1,0c3,0.1,0.1,0,0,0c3.1,0.1,5.6,2.1,6.2,5.2c0.1,0.5,0.1,1,0.1,1.6    C16.8,9.7,16.7,9.9,16.5,9.9z"/>
	</symbol>

	<symbol xmlns="http://www.w3.org/2000/svg" xmlns:xlink="http://www.w3.org/1999/xlink" version="1.1" id="phone" x="0px" y="0px" 
	 viewBox="0 0 12 12" style="enable-background:new 0 0 12 12;" xml:space="preserve">
		<path d="M11.7,9.5L9.9,7.6c-0.4-0.4-1-0.4-1.4,0L7.6,8.6c-0.1,0-0.1-0.1-0.2-0.1C6.8,8.1,6,7.7,5.2,6.8C4.3,6,3.9,5.2,3.5,4.6    c0-0.1-0.1-0.1-0.1-0.2l0.6-0.6l0.3-0.3c0.4-0.4,0.4-1,0-1.4L2.5,0.3c-0.4-0.4-1-0.4-1.4,0L0.6,0.8l0,0C0.5,1.1,0.3,1.3,0.2,1.6    C0.1,1.9,0.1,2.1,0,2.4c-0.2,2,0.7,3.9,3.2,6.4C6.7,12.2,9.5,12,9.6,12c0.3,0,0.5-0.1,0.8-0.2c0.3-0.1,0.5-0.3,0.8-0.4l0,0l0.5-0.5    C12.1,10.5,12.1,9.8,11.7,9.5z"/>
	</symbol>

	<symbol version="1.1" id="arrow2" xmlns="http://www.w3.org/2000/svg" xmlns:xlink="http://www.w3.org/1999/xlink" x="0px" y="0px"
	 viewBox="0 0 24.6 12.7" style="enable-background:new 0 0 24.6 12.7;" xml:space="preserve">
		<style type="text/css">
			.st0{fill-rule:evenodd;clip-rule:evenodd;fill:#BDFF02;}
		</style>
		<path class="st0" d="M18.4,0.2c-0.3-0.3-0.8-0.3-1.2,0c-0.3,0.3-0.3,0.9,0,1.2l4.1,4.1H0.8C0.4,5.5,0,5.9,0,6.3s0.4,0.8,0.8,0.8
			h20.5l-4.1,4.1c-0.3,0.3-0.3,0.9,0,1.2c0.3,0.3,0.8,0.3,1.2,0l6.2-6.1L18.4,0.2z"/>
	</symbol>

	<symbol version="1.1" id="arrow3" xmlns="http://www.w3.org/2000/svg" xmlns:xlink="http://www.w3.org/1999/xlink" x="0px" y="0px"
	 viewBox="0 0 16 15.2" style="enable-background:new 0 0 16 15.2;" xml:space="preserve">
		<style type="text/css">
			.st0{fill-rule:evenodd;clip-rule:evenodd;fill:#C2D1D9;}
		</style>
		<path class="st0" d="M7.3,0.3c0.4-0.4,1-0.4,1.4,0c0.4,0.4,0.4,1,0,1.4L3.8,6.6H15c0.6,0,1,0.4,1,1c0,0.6-0.4,1-1,1H3.8l4.9,4.9
			c0.4,0.4,0.4,1,0,1.4c-0.4,0.4-1,0.4-1.4,0L0,7.6L7.3,0.3z"/>
	</symbol>

	<symbol version="1.1" id="twitter" xmlns="http://www.w3.org/2000/svg" xmlns:xlink="http://www.w3.org/1999/xlink" x="0px" y="0px"
	 viewBox="0 0 20.9 15.1" style="enable-background:new 0 0 20.9 15.1;" xml:space="preserve">
		<style type="text/css">
			.st0{fill-rule:evenodd;clip-rule:evenodd;fill:#C2D1D9;}
		</style>
		<path class="st0" d="M16.7,2.5L16.7,2.5c-0.8-0.8-1.7-1.1-2.8-1.1l0-0.1l0,0c1-0.2,1.5-0.4,1.7-0.7c0.1-0.2,0-0.3-0.2-0.3
			c-0.5,0.1-0.9,0.2-1.3,0.3c0.5-0.3,0.7-0.5,0.6-0.7c-0.5,0-1,0.3-1.6,0.8c0.2-0.3,0.3-0.5,0.2-0.6c-0.3,0.2-0.5,0.4-0.7,0.6
			c-0.4,0.5-0.8,0.9-1,1.3l0,0c-0.7,1.1-1.1,2.2-1.4,3.3L10,5.4l0,0C9.6,5,9.1,4.5,8.5,4.2C7.9,3.8,7,3.3,6.1,2.9
			c-1-0.5-2-0.9-3.1-1.3c0,1.2,0.6,2.1,1.7,2.7v0C4.4,4.4,4,4.5,3.6,4.6c0.1,1.1,0.8,1.8,2.3,2.2l0,0c-0.6,0-1,0.2-1.4,0.6
			C4.9,8.3,5.8,8.7,7,8.7C6.8,8.8,6.6,8.9,6.4,9.1C6.2,9.3,6.1,9.6,6.2,9.9c0.3,0.5,0.7,0.7,1.4,0.6l0,0l0,0c-1.2,1.2-2.6,1.8-4.3,1.6
			l0,0c-1,0-2.1-0.5-3.3-1.5c1.2,1.7,2.8,2.9,4.8,3.7c2.2,0.7,4.5,0.8,6.7,0.2h0c2.2-0.6,4-1.9,5.6-3.8c0.7-1,1.1-2,1.3-2.9
			c1.1,0,2-0.3,2.5-1l0,0c-0.4,0.1-1.1,0.1-2.2-0.1V6.7c1.2-0.1,1.9-0.5,2.1-1.2c-0.8,0.3-1.7,0.3-2.5,0C18.2,4.5,17.6,3.4,16.7,2.5"
			/>
	</symbol>

	<symbol version="1.1" id="play2" xmlns="http://www.w3.org/2000/svg" xmlns:xlink="http://www.w3.org/1999/xlink" x="0px" y="0px"
	 viewBox="0 0 52.5 52.5" style="enable-background:new 0 0 52.5 52.5;" xml:space="preserve">
		<style type="text/css">
			.st0{fill-rule:evenodd;clip-rule:evenodd;fill:#C2D1D9;}
		</style>
		<path class="st0" d="M26.2,52.5C11.8,52.5,0,40.7,0,26.2S11.8,0,26.2,0s26.2,11.8,26.2,26.2S40.7,52.5,26.2,52.5z M35.7,27
			c0.5-0.4,0.5-1.2,0-1.6l-13.1-9.8c-0.7-0.5-1.6,0-1.6,0.8v19.6c0,0.8,0.9,1.3,1.6,0.8L35.7,27z"/>
	</symbol>

	<symbol version="1.1" id="user" xmlns="http://www.w3.org/2000/svg" xmlns:xlink="http://www.w3.org/1999/xlink" x="0px" y="0px"
	 viewBox="0 0 18 20" style="enable-background:new 0 0 18 20;" xml:space="preserve">
		<style type="text/css">
			.st0{fill-rule:evenodd;clip-rule:evenodd;fill:#C2D1D9;}
		</style>
		<path class="st0" d="M9,10c2.8,0,5-2.2,5-5s-2.2-5-5-5C6.2,0,4,2.2,4,5S6.2,10,9,10z M9,2c1.7,0,3,1.3,3,3s-1.3,3-3,3
			C7.3,8,6,6.7,6,5S7.3,2,9,2z M18,19c0,0.6-0.4,1-1,1s-1-0.4-1-1v-2c0-1.5-3.8-3-7-3s-7,1.5-7,3v2c0,0.6-0.4,1-1,1c-0.6,0-1-0.4-1-1
			v-2c0-3.1,4.8-5,9-5c4.2,0,9,1.9,9,5V19z"/>
	</symbol>

	<symbol version="1.1" id="email" xmlns="http://www.w3.org/2000/svg" xmlns:xlink="http://www.w3.org/1999/xlink" x="0px" y="0px"
	 viewBox="0 0 22 18" style="enable-background:new 0 0 22 18;" xml:space="preserve">
		<style type="text/css">
			.st0{fill-rule:evenodd;clip-rule:evenodd;fill:#979797;}
		</style>
		<path class="st0" d="M19,0H3C1.3,0,0,1.3,0,3l0,12c0,1.7,1.3,3,3,3h16c1.7,0,3-1.3,3-3V3C22,1.3,20.7,0,19,0z M2,3c0-0.6,0.4-1,1-1
			h16c0.5,0,1,0.5,1,1v12c0,0.5-0.5,1-1,1H3c-0.5,0-1-0.5-1-1L2,3z M4.5,6C4,5.7,3.9,5.1,4.1,4.6C4.4,4.2,5,4,5.5,4.3L11,7.6l5.7-3.4
			C17.1,3.9,17.8,4,18,4.5c0.3,0.5,0.1,1.1-0.3,1.4L11,9.9l0,0L4.5,6z"/>
	</symbol>

	<symbol version="1.1" id="facebook" xmlns="http://www.w3.org/2000/svg" xmlns:xlink="http://www.w3.org/1999/xlink" x="0px" y="0px"
	 viewBox="0 0 6.5 14" style="enable-background:new 0 0 6.5 14;" xml:space="preserve">
		<style type="text/css">
			.st0{fill:#C2D1D9;}
		</style>
		<path class="st0" d="M6.3,7h-2c0,3.1,0,7,0,7H1.4c0,0,0-3.8,0-7H0V4.5h1.4V2.9C1.4,1.8,1.9,0,4.3,0l2.2,0v2.4c0,0-1.3,0-1.6,0
			S4.3,2.5,4.3,3.1v1.5h2.2L6.3,7z"/>
	</symbol>


	<symbol version="1.1" id="linkedin" xmlns="http://www.w3.org/2000/svg" xmlns:xlink="http://www.w3.org/1999/xlink" x="0px" y="0px"
	 viewBox="0 0 13.6 13" style="enable-background:new 0 0 13.6 13;" xml:space="preserve">
		<style type="text/css">
			.st0{fill-rule:evenodd;clip-rule:evenodd;fill:#BDFF02;}
		</style>
		<path class="st0" d="M1.7,0C0.7,0,0,0.7,0,1.5C0,2.4,0.6,3,1.6,3h0c1,0,1.6-0.7,1.6-1.5C3.3,0.7,2.6,0,1.7,0z M13.6,8v5h-2.9V8.3
			c0-1.2-0.4-2-1.5-2c-0.8,0-1.3,0.5-1.5,1.1C7.6,7.6,7.6,7.8,7.6,8.1V13H4.7c0,0,0-7.9,0-8.8h2.9v1.2c0,0,0,0,0,0l0,0c0,0,0,0,0,0h0
			v0C8,4.9,8.7,4,10.2,4C12.2,4,13.6,5.3,13.6,8z M3.1,13H0.2V4.2h2.9V13z"/>
	</symbol>

</svg>