<?xml version="1.0" encoding="utf-8"?>
<!-- Generator: Adobe Illustrator 27.0.0, SVG Export Plug-In . SVG Version: 6.00 Build 0)  -->
<svg version="1.1" id="Слой_1" xmlns="http://www.w3.org/2000/svg" xmlns:xlink="http://www.w3.org/1999/xlink" x="0px" y="0px"
	 viewBox="0 0 13.6 13" style="enable-background:new 0 0 13.6 13;" xml:space="preserve">
<style type="text/css">
	.st0{fill-rule:evenodd;clip-rule:evenodd;fill:#BDFF02;}
</style>
<path class="st0" d="M1.7,0C0.7,0,0,0.7,0,1.5C0,2.4,0.6,3,1.6,3h0c1,0,1.6-0.7,1.6-1.5C3.3,0.7,2.6,0,1.7,0z M13.6,8v5h-2.9V8.3
	c0-1.2-0.4-2-1.5-2c-0.8,0-1.3,0.5-1.5,1.1C7.6,7.6,7.6,7.8,7.6,8.1V13H4.7c0,0,0-7.9,0-8.8h2.9v1.2c0,0,0,0,0,0l0,0c0,0,0,0,0,0h0
	v0C8,4.9,8.7,4,10.2,4C12.2,4,13.6,5.3,13.6,8z M3.1,13H0.2V4.2h2.9V13z"/>
</svg>
