<svg width="142" height="194" viewBox="0 0 142 194" fill="none" xmlns="http://www.w3.org/2000/svg">
<g id="avatar">
<path id="Combined Shape" fill-rule="evenodd" clip-rule="evenodd" d="M32.9899 37.655C23.8275 34.6378 17.2121 25.9966 17.2121 15.8074L25.3195 16.9942C22.9153 13.3587 21.5152 8.99875 21.5152 4.31111L32.9899 5.99083V0L96.8075 9.65093C103.823 10.7119 109.01 16.7521 109.01 23.8603V49.2214C113.959 50.4977 117.616 54.9987 117.616 60.3556C117.616 65.7124 113.959 70.2135 109.01 71.4897V76.163H108.95C108.224 89.2043 100.948 100.494 90.3636 106.784V113.526H103.273C110.817 113.526 117.002 119.362 117.573 126.774C131.396 128.836 142 140.777 142 155.2V194H0V155.2C0 140.277 11.352 128.01 25.8762 126.595C26.5323 119.268 32.6776 113.526 40.1616 113.526H51.6364V106.784C41.0522 100.494 33.7761 89.2043 33.0498 76.163H32.9899V71.8519C26.6526 71.8519 21.5152 66.7048 21.5152 60.3556C21.5152 54.0063 26.6526 48.8593 32.9899 48.8593V37.655Z" fill="#C2D1D9"/>
</g>
</svg>
