<svg width="1175" height="667" viewBox="0 0 1175 667" fill="none" xmlns="http://www.w3.org/2000/svg">
<path d="M276.268 2.11451C187.979 59.6223 98.0644 134.867 44.8225 227.276C31.2294 250.869 21.1211 276.04 12.4044 301.774C6.64971 318.764 0.130943 336.397 2.98472 354.611C9.95818 399.12 49.0991 436.146 88.1045 454.125C163.039 488.665 256.386 450.263 328.296 424.575C426.127 389.628 529.877 342.26 605.884 269.347C648.422 228.54 675.77 171.709 693.291 116.073C697.263 103.461 704.032 86.2801 698.532 73.0256C690.724 54.2048 662.639 45.2631 645.676 39.032C568.324 10.6176 481.354 15.3509 408.728 56.4628C339.267 95.7829 313.555 181.039 294.257 253.581C284.658 289.661 266.996 357.538 304.95 384.056C366.21 426.859 456.553 412.936 521.689 389.806C581.986 368.394 630.922 333.184 678.082 290.354C713.846 257.874 747.964 224.12 769.37 180.343C775.608 167.586 788.845 144.907 778.644 130.905C761.27 107.056 711.462 100.08 685.12 96.9275C585.79 85.0385 478.925 119.653 404.492 186.047C338.763 244.677 295.276 325.696 274.611 410.845C232.695 583.549 511.404 492.733 586.505 460.605C645.857 435.214 701.177 398.81 737.17 344.129C753.424 319.435 764.922 292.542 774.818 264.794C784.755 236.932 796.144 207.254 793.872 177.15C790.022 126.142 751.645 99.8197 706.435 85.3276C648.007 66.5986 587.606 75.1605 540.73 116.403C471.573 177.248 442.985 264.793 415.284 349.742C402.529 388.854 377.651 456.66 404.383 496.032C421.835 521.735 467.934 527.667 495.558 526.34C567.639 522.878 632.247 482.204 688.422 440.535C786.115 368.069 885.048 288.988 916.621 165.572C922.766 141.551 913.336 131.91 901.816 111.713C890.479 91.8353 881.03 71.6301 858.236 63.9093C819.964 50.9458 781.999 34.8371 741.245 32.6143C688.576 29.7419 630.659 26.4873 582.188 50.4258C545.308 68.6394 511.465 93.8136 477.809 117.214C435.481 146.643 393.326 176.42 352.829 208.342C290.696 257.32 231.723 317.797 202.099 392.461C187.245 429.898 172.777 467.567 160.499 505.942C152.763 530.124 153.82 558.194 169.66 579.008C190.576 606.492 234.027 618.861 265.349 628.228C325.034 646.076 386.323 630.662 441.729 605.51C546.269 558.054 648.242 501.631 712.443 403.131C741.58 358.427 760.719 309.602 776.782 258.995C786.741 227.621 801.864 179.393 771.215 154.535C735.65 125.687 690.666 127.821 653.572 151.464C597.014 187.512 547.677 251.305 516.907 310.178C494.133 353.751 470.129 404.921 466.681 454.641C464.633 484.18 463.544 521.559 474.1 549.816C499.592 618.047 569.722 643.932 637.3 619.461C694.686 598.68 749.549 565.605 792.693 522.112C828.91 485.602 864.149 443.947 882.984 395.53C892.626 370.745 907.451 335.21 887.043 311.858C861.73 282.891 815.268 295.526 786.822 310.378C724.342 342.999 667.392 399.171 627.664 457.02C596.005 503.119 569.395 555.474 558.458 610.857C539.908 704.786 687.814 652.056 726.734 635.819C835.978 590.244 974.566 511.871 999.146 384.308C1003.51 361.638 1003.16 320.86 970.617 320.915C951.523 320.947 932.74 337.816 919.655 349.625C892.486 374.143 869.675 404.234 851.847 436.127C833.452 469.034 821.519 499.208 833.164 536.252C842.712 566.626 865.449 590.535 892.647 606.251C908.795 615.581 925.526 623.435 944.459 624.662C985.88 627.348 1023.31 599.754 1056.36 578.522C1097.31 552.211 1139.03 524.129 1172.51 488.426" stroke="#3502FF" stroke-width="3" stroke-linecap="round"/>
</svg>
